<?xml version="1.0" encoding="UTF-8"?>
<!DOCTYPE svg PUBLIC "-//W3C//DTD SVG 1.1//EN" "http://www.w3.org/Graphics/SVG/1.1/DTD/svg11.dtd">
<!-- Creator: CorelDRAW 2020 (64-Bit Оценочная версия) -->
<svg xmlns="http://www.w3.org/2000/svg" xml:space="preserve" width="210mm" height="297mm" version="1.1" style="shape-rendering:geometricPrecision; text-rendering:geometricPrecision; image-rendering:optimizeQuality; fill-rule:evenodd; clip-rule:evenodd"
viewBox="0 0 21000 29700"
 xmlns:xlink="http://www.w3.org/1999/xlink"
 xmlns:xodm="http://www.corel.com/coreldraw/odm/2003">
 <defs>
  <style type="text/css">
   <![CDATA[
    .fil0 {fill:#000088;fill-rule:nonzero}
    .fil1 {fill:#DB2828;fill-rule:nonzero}
   ]]>
  </style>
 </defs>
 <g id="Слой_x0020_1">
  <metadata id="CorelCorpID_0Corel-Layer"/>
  <g id="_3155313103232">
   <path class="fil0" d="M8744.33 14710.52l337.53 0 0 -1381.88 -292.73 0 0 827.16 -337.52 -827.16 -412.22 0 0 1381.88 295.72 0 0 -1000.87 409.22 1000.87zm1069.35 -1381.88l-495.85 0 0 1381.88 516.77 0c328.57,0 498.82,-114.5 498.82,-327.7l0 -112.53c0,-146.08 -68.7,-250.71 -244.94,-296.11 146.38,-45.41 212.09,-136.22 212.09,-278.35l0 -49.36c0,-213.2 -146.36,-317.83 -486.89,-317.83l0 0zm-20.91 760.04c149.35,0 212.08,39.48 212.08,167.79l0 120.43c0,102.65 -59.74,136.21 -170.25,136.21l-188.19 0 0 -424.43 146.36 0zm11.94 -562.63c116.5,0 167.28,43.43 167.28,142.14l0 76.99c0,110.55 -74.68,146.08 -197.15,146.08l-128.43 0 0 -365.21 158.3 0zm1454.7 -197.41l-480.91 0 -334.55 1381.88 301.68 0 56.76 -250.71 403.24 0 56.76 250.71 331.56 0 -334.54 -1381.88zm-256.9 244.79l158.32 698.84 -316.62 0 158.3 -698.84z"/>
  </g>
  <g id="_3155313102704">
  </g>
  <g id="_3155313103664">
  </g>
  <path class="fil1" d="M8744.35 16368.79l337.52 0 0 -1381.89 -292.72 0 0 827.16 -337.54 -827.16 -412.22 0 0 1381.89 295.72 0 0 -1000.88 409.24 1000.88zm902.08 -1184.48l567.53 0 0 -197.41 -896.1 0 0 1381.89 896.1 0 0 -197.41 -567.53 0 0 -404.7 451.04 0 0 -197.41 -451.04 0 0 -384.96zm1618.98 1184.48l436.11 0 232.99 -1381.89 -286.75 0 -170.27 1097.62 -164.29 -1097.62 -316.62 0 -158.31 1089.72 -176.25 -1089.72 -319.61 0 232.98 1381.89 451.06 0 119.47 -736.35 119.49 736.35zm791.58 -1050.24c0,394.83 642.22,448.13 642.22,732.41 0,98.7 -65.73,134.24 -170.27,134.24 -104.54,0 -170.27,-35.54 -170.27,-134.24l0 -98.71 -310.65 0 0 84.89c0,221.1 167.29,347.44 489.88,347.44 322.61,0 489.88,-126.34 489.88,-347.44 0,-394.83 -642.22,-448.13 -642.22,-732.41 0,-98.7 59.74,-136.21 164.29,-136.21 104.54,0 164.3,37.51 164.3,136.21l0 57.25 310.65 0 0 -43.43c0,-221.1 -164.29,-347.44 -483.9,-347.44 -319.63,0 -483.91,126.34 -483.91,347.44l0 0z"/>
 </g>
</svg>
